<?xml version="1.0" encoding="iso-8859-1"?>
<!-- Uploaded to: SVG Repo, www.svgrepo.com, Generator: SVG Repo Mixer Tools -->
<svg height="800px" width="800px" version="1.1" id="Layer_1" xmlns="http://www.w3.org/2000/svg" xmlns:xlink="http://www.w3.org/1999/xlink" 
	 viewBox="0 0 511.997 511.997" xml:space="preserve">
<path style="fill:#DA4453;" d="M511.997,437.326c0,11.781-9.562,21.344-21.344,21.344H21.328C9.547,458.669,0,449.107,0,437.326V96
	c0-11.781,9.546-21.328,21.328-21.328h469.325c11.781,0,21.344,9.547,21.344,21.328L511.997,437.326L511.997,437.326z"/>
<path style="fill:#ED5564;" d="M511.997,416.014c0,11.781-9.562,21.312-21.344,21.312H21.328C9.547,437.326,0,427.795,0,416.014
	V74.672c0-11.781,9.546-21.344,21.328-21.344h469.325c11.781,0,21.344,9.562,21.344,21.344L511.997,416.014L511.997,416.014z"/>
<path style="fill:#DA4453;" d="M63.992,159.999c-5.891,0-10.664,4.781-10.664,10.672v149.343c0,5.875,4.773,10.656,10.664,10.656
	c5.891,0,10.672-4.781,10.672-10.656V170.671C74.664,164.781,69.883,159.999,63.992,159.999z"/>
<g>
	<path style="fill:#E6E9ED;" d="M74.664,106.672c0,5.891-4.781,10.656-10.672,10.656c-5.891,0-10.664-4.766-10.664-10.656
		S58.101,96,63.992,96C69.883,96,74.664,100.781,74.664,106.672z"/>
	<path style="fill:#E6E9ED;" d="M74.664,384.014c0,5.875-4.781,10.656-10.672,10.656c-5.891,0-10.664-4.781-10.664-10.656
		c0-5.906,4.773-10.688,10.664-10.688C69.883,373.327,74.664,378.108,74.664,384.014z"/>
	<path style="fill:#E6E9ED;" d="M447.997,123.734h-21.344v203.187l-40.312,50.406v0.016c-1.469,1.828-2.344,4.141-2.344,6.672
		c0,5.875,4.781,10.656,10.656,10.656c3.375,0,6.375-1.562,8.328-4h0.016l42.656-53.344l0,0c1.469-1.812,2.344-4.125,2.344-6.656
		V123.734z"/>
	<path style="fill:#E6E9ED;" d="M437.325,149.328c-11.766,0-21.328-9.562-21.328-21.328s9.562-21.328,21.328-21.328
		s21.328,9.562,21.328,21.328S449.091,149.328,437.325,149.328z"/>
</g>
<path style="fill:#CCD1D9;" d="M437.325,96c-17.672,0-32,14.328-32,32s14.328,32,32,32s32-14.328,32-32S454.997,96,437.325,96z
	 M437.325,138.672c-5.891,0-10.672-4.797-10.672-10.672c0-5.875,4.781-10.672,10.672-10.672s10.672,4.797,10.672,10.672
	C447.997,133.875,443.216,138.672,437.325,138.672z"/>
<path style="fill:#434A54;" d="M405.325,245.327c0,82.484-66.857,149.344-149.334,149.344c-82.468,0-149.328-66.859-149.328-149.344
	C106.663,162.859,173.522,96,255.991,96C338.468,96,405.325,162.859,405.325,245.327z"/>
<g>
	<path style="fill:#656D78;" d="M266.663,149.328c0-5.891-4.773-10.656-10.672-10.656c-58.906,0-106.664,47.75-106.664,106.655l0,0
		c0,5.891,4.773,10.672,10.664,10.672s10.672-4.781,10.672-10.672l0,0c0-22.781,8.875-44.219,24.992-60.328
		c16.117-16.125,37.547-25,60.336-25C261.89,159.999,266.663,155.219,266.663,149.328z"/>
	<path style="fill:#656D78;" d="M351.997,234.671c-5.904,0-10.67,4.766-10.67,10.656l0,0c0,22.797-8.875,44.234-24.984,60.344
		c-16.125,16.125-37.562,25-60.352,25c-5.891,0-10.664,4.781-10.664,10.656c0,5.906,4.773,10.688,10.664,10.688
		c58.914,0,106.662-47.766,106.662-106.688C362.653,239.437,357.888,234.671,351.997,234.671z"/>
</g>
<path style="fill:#FFCE54;" d="M255.991,288.014c-23.523,0-42.664-19.156-42.664-42.688c0-23.516,19.141-42.656,42.664-42.656
	c23.539,0,42.664,19.141,42.664,42.656C298.655,268.858,279.53,288.014,255.991,288.014z"/>
<path style="fill:#F6BB42;" d="M255.991,191.999c-29.453,0-53.328,23.875-53.328,53.328s23.875,53.344,53.328,53.344
	c29.461,0,53.336-23.891,53.336-53.344S285.452,191.999,255.991,191.999z M255.991,277.342c-17.641,0-32-14.359-32-32.016
	c0-17.641,14.359-32,32-32c17.648,0,32.008,14.359,32.008,32C287.999,262.983,273.64,277.342,255.991,277.342z"/>
<g>
	<path style="fill:#434A54;" d="M266.663,245.327c0,5.891-4.773,10.672-10.672,10.672c-5.891,0-10.664-4.781-10.664-10.672
		s4.773-10.656,10.664-10.656C261.89,234.671,266.663,239.437,266.663,245.327z"/>
	<path style="fill:#434A54;" d="M74.664,234.671H53.328c-5.891,0-10.664,4.766-10.664,10.656s4.773,10.672,10.664,10.672h21.336
		c5.891,0,10.664-4.781,10.664-10.672S80.555,234.671,74.664,234.671z"/>
</g>
</svg>